HIERARCHY
ROOT Hips
{
	OFFSET 61.978802 -7.500375 92.434303
	CHANNELS 6 Xposition Yposition Zposition Xrotation Yrotation Zrotation
	JOINT spine
	{
		OFFSET 0.000000 -0.429886 7.475601
		CHANNELS 3 Xrotation Yrotation Zrotation
		JOINT spine1
		{
			OFFSET 0.000000 -0.000002 9.923012
			CHANNELS 3 Xrotation Yrotation Zrotation
			JOINT spine2
			{
				OFFSET 0.000000 -0.000001 9.508041
				CHANNELS 3 Xrotation Yrotation Zrotation
				JOINT Neck
				{
					OFFSET 0.000000 -1.163844 24.411102
					CHANNELS 3 Xrotation Yrotation Zrotation
					JOINT Head
					{
						OFFSET 0.000000 -0.000001 7.375229
						CHANNELS 3 Xrotation Yrotation Zrotation
						End Site
						{
							OFFSET 0.000000 5.887407 17.852203
						}
					}
				}
				JOINT RightShoulder
				{
					OFFSET -4.003559 0.557467 10.267899
					CHANNELS 3 Xrotation Yrotation Zrotation
					JOINT RightArm
					{
						OFFSET 0.000000 -0.000002 13.467300
						CHANNELS 3 Xrotation Yrotation Zrotation
						JOINT RightArmRoll
						{
							OFFSET 0.000000 -0.000001 6.798584
							CHANNELS 3 Xrotation Yrotation Zrotation
							JOINT RightForeArm
							{
								OFFSET 0.000000 -0.000003 19.801804
								CHANNELS 3 Xrotation Yrotation Zrotation
								JOINT RightForeArmRoll
								{
									OFFSET 0.000000 -0.000001 7.629044
									CHANNELS 3 Xrotation Yrotation Zrotation
									JOINT RightHand
									{
										OFFSET 0.000000 -0.000002 15.309799
										CHANNELS 3 Xrotation Yrotation Zrotation
										End Site
										{
											OFFSET 0.000000 0.000000 0.100006
										}
									}
								}
							}
						}
					}
				}
				JOINT LeftShoulder
				{
					OFFSET 4.003559 0.557467 10.267899
					CHANNELS 3 Xrotation Yrotation Zrotation
					JOINT LeftArm
					{
						OFFSET 0.000000 -0.000002 13.467300
						CHANNELS 3 Xrotation Yrotation Zrotation
						JOINT LeftArmRoll
						{
							OFFSET 0.000000 -0.000001 6.798584
							CHANNELS 3 Xrotation Yrotation Zrotation
							JOINT LeftForeArm
							{
								OFFSET 0.000000 -0.000003 19.801804
								CHANNELS 3 Xrotation Yrotation Zrotation
								JOINT LeftForeArmRoll
								{
									OFFSET 0.000000 -0.000001 7.629059
									CHANNELS 3 Xrotation Yrotation Zrotation
									JOINT LeftHand
									{
										OFFSET 0.000000 -0.000002 15.309799
										CHANNELS 3 Xrotation Yrotation Zrotation
										End Site
										{
											OFFSET 0.000000 0.000000 0.100006
										}
									}
								}
							}
						}
					}
				}
			}
		}
	}
	JOINT RightUpLeg
	{
		OFFSET -6.626091 1.019270 -1.215050
		CHANNELS 3 Xrotation Yrotation Zrotation
		JOINT RightUpLegRoll
		{
			OFFSET 0.000000 -0.000003 17.951698
			CHANNELS 3 Xrotation Yrotation Zrotation
			JOINT RightLeg
			{
				OFFSET 0.000000 0.000003 -22.230400
				CHANNELS 3 Xrotation Yrotation Zrotation
				JOINT RightLegRoll
				{
					OFFSET 0.000000 -0.000003 22.303200
					CHANNELS 3 Xrotation Yrotation Zrotation
					JOINT RightFoot
					{
						OFFSET 0.000000 -0.000003 18.563599
						CHANNELS 3 Xrotation Yrotation Zrotation
						JOINT RightToeBase
						{
							OFFSET 0.000000 -0.000002 15.518303
							CHANNELS 3 Xrotation Yrotation Zrotation
							End Site
							{
								OFFSET 0.006577 0.866261 7.515381
							}
						}
					}
				}
			}
		}
	}
	JOINT LeftUpLeg
	{
		OFFSET 6.626087 1.019270 -1.215050
		CHANNELS 3 Xrotation Yrotation Zrotation
		JOINT LeftUpLegRoll
		{
			OFFSET 0.000000 -0.000003 17.951797
			CHANNELS 3 Xrotation Yrotation Zrotation
			JOINT LeftLeg
			{
				OFFSET 0.000000 -0.000004 22.230301
				CHANNELS 3 Xrotation Yrotation Zrotation
				JOINT LeftLegRoll
				{
					OFFSET 0.000000 -0.000004 22.509293
					CHANNELS 3 Xrotation Yrotation Zrotation
					JOINT LeftFoot
					{
						OFFSET 0.000000 -0.000003 18.357498
						CHANNELS 3 Xrotation Yrotation Zrotation
						JOINT LeftToeBase
						{
							OFFSET 0.000000 -0.000002 15.518295
							CHANNELS 3 Xrotation Yrotation Zrotation
							End Site
							{
								OFFSET -0.029480 0.866261 7.515396
							}
						}
					}
				}
			}
		}
	}
}
MOTION
Frames: 12
Frame Time: 0.041667
58.450104 -6.631867 92.668892 -5.937741 -1.380586 0.516861 -0.745352 0.351451 0.010757 2.512089 0.702789 0.022624 4.157204 0.703007 0.014204 5.416816 1.057419 -2.953973 10.375712 -11.770519 -0.836415 -16.847681 -6.426028 -18.833147 -149.205646 -180.091598 -75.314584 -0.000001 -0.000000 -0.000008 53.406383 -1.605546 1.608657 -0.000000 0.000004 -3.000102 -5.000209 -7.999601 0.000066 -2.383467 79.748121 4.894012 -74.129696 99.681994 54.936376 0.000002 0.000001 0.000003 0.062951 7.806627 0.757178 -0.000001 0.000002 3.015970 -5.000172 7.999860 -0.000028 -7.625505 -173.843505 3.788519 -179.999991 0.000006 -1.123001 152.846438 -3.197876 -1.727928 0.000003 0.000003 0.413492 69.512809 6.903923 2.063995 30.212901 -7.235108 1.766605 -0.058157 -175.868997 4.626840 -0.000005 0.000011 -1.099190 -10.242325 3.805304 0.603018 -0.000006 0.000002 -0.146228 71.157819 -6.904008 -1.966113 25.456854 7.355621 0.000003 
58.400803 -6.675765 92.680801 -5.932979 -1.376599 0.488265 -0.744356 0.351314 0.011163 2.514079 0.702515 0.023433 4.159192 0.702743 0.015016 5.390888 1.073413 -2.947589 10.379694 -11.786526 -0.828421 -16.834388 -6.431917 -18.810198 -149.160390 -179.968272 -75.303068 0.000000 -0.000000 -0.000008 53.034298 -1.494807 1.525072 -0.000001 0.000004 -3.000090 -5.000214 -7.999600 0.000067 -2.379140 79.766958 4.891163 -74.252448 99.688134 55.058756 0.000001 0.000000 0.000003 0.062975 7.806916 0.756695 -0.000000 0.000002 3.015942 -5.000174 7.999861 -0.000023 -7.636894 -173.841688 3.785293 -179.999991 0.000005 -1.122003 152.849525 -3.195288 -1.727383 0.000004 0.000003 0.413418 69.512399 6.903942 2.063925 30.182213 -7.235584 1.767971 -0.060587 -175.868997 4.626464 -0.000005 0.000011 -1.098941 -10.236834 3.807280 0.602599 -0.000007 0.000002 -0.146295 71.156412 -6.903955 -1.966690 25.456861 7.355621 0.000002 
58.409405 -6.666757 92.676399 -5.925691 -1.373634 0.461893 -0.743846 0.351486 0.011287 2.515090 0.702836 0.023678 4.160204 0.703066 0.015256 5.364909 1.087586 -2.941909 10.384375 -11.802018 -0.820979 -16.821697 -6.437653 -18.788266 -149.114955 -179.841750 -75.294353 0.000000 -0.000001 -0.000008 52.655721 -1.381443 1.440642 0.000005 0.000004 -3.000090 -5.000209 -7.999600 0.000067 -2.374944 79.784416 4.888330 -74.364019 99.694281 55.169528 0.000002 0.000000 0.000001 0.063001 7.806595 0.756077 0.000001 0.000001 3.015917 -5.000173 7.999859 -0.000024 -7.651428 -173.838915 3.783166 -179.999991 0.000005 -1.122004 152.851355 -3.193564 -1.727368 0.000003 0.000004 0.413345 69.512399 6.903977 2.063830 30.152130 -7.236057 1.769372 -0.066372 -175.866006 4.626754 -0.000005 0.000011 -1.098730 -10.232151 3.809540 0.602306 -0.000007 0.000002 -0.146364 71.155490 -6.904060 -1.966265 25.456853 7.355621 0.000001 
58.449203 -6.634225 92.668404 -5.915959 -1.371370 0.437532 -0.743795 0.351878 0.011162 2.515189 0.703563 0.023429 4.160315 0.703788 0.015000 5.337958 1.100917 -2.936848 10.390492 -11.817453 -0.813931 -16.809497 -6.443068 -18.767097 -149.070245 -179.711334 -75.285043 -0.000000 -0.000000 -0.000008 52.268210 -1.263772 1.354832 0.000000 0.000004 -3.000091 -5.000214 -7.999597 0.000066 -2.370637 79.801458 4.885336 -74.470358 99.700299 55.274426 0.000002 0.000001 0.000004 0.063024 7.805846 0.755321 -0.000001 0.000001 3.015898 -5.000173 7.999859 -0.000025 -7.668977 -173.833218 3.781448 -179.999991 0.000005 -1.122004 152.852093 -3.192698 -1.728867 0.000004 0.000003 0.413274 69.512720 6.903990 2.063913 30.122145 -7.236512 1.770649 -0.075151 -175.863000 4.627749 -0.000005 0.000011 -1.098490 -10.227868 3.811747 0.602082 -0.000008 0.000003 -0.146435 71.154349 -6.904167 -1.965355 25.456860 7.355621 0.000002 
58.436405 -6.646052 92.676003 -5.904126 -1.369708 0.414961 -0.744139 0.352467 0.010822 2.514501 0.704653 0.022753 4.159616 0.704868 0.014311 5.310225 1.113313 -2.932333 10.397730 -11.832946 -0.807222 -16.797792 -6.448187 -18.746904 -149.026053 -179.577271 -75.277270 0.000001 -0.000001 -0.000009 51.872705 -1.142247 1.268052 0.000001 0.000005 -3.000091 -5.000211 -7.999599 0.000066 -2.366279 79.817796 4.882225 -74.571958 99.706186 55.374205 0.000002 0.000001 0.000003 0.063047 7.804676 0.754449 0.000000 0.000002 3.015878 -5.000172 7.999861 -0.000024 -7.689044 -173.827563 3.780434 -179.999991 0.000005 -1.122004 152.851888 -3.192691 -1.729890 0.000003 0.000003 0.413199 69.513451 6.903950 2.063861 30.092362 -7.236965 1.771851 -0.086533 -175.858998 4.629340 -0.000005 0.000011 -1.098239 -10.224086 3.813879 0.601924 -0.000007 0.000002 -0.146509 71.153134 -6.904340 -1.963860 25.456856 7.355622 0.000003 
58.459309 -6.630265 92.670395 -5.890489 -1.368538 0.393963 -0.744826 0.353229 0.010299 2.513131 0.706069 0.021713 4.158247 0.706268 0.013254 5.281940 1.124676 -2.928309 10.405883 -11.848209 -0.800847 -16.786576 -6.453079 -18.727492 -148.981739 -179.439793 -75.271157 0.000001 0.000000 -0.000008 51.470035 -1.017321 1.180676 0.000001 0.000003 -3.000090 -5.000212 -7.999598 0.000067 -2.362064 79.833642 4.879222 -74.668393 99.711958 55.468277 0.000002 0.000001 0.000006 0.063070 7.803137 0.753481 -0.000002 0.000002 3.015871 -5.000172 7.999859 -0.000027 -7.711248 -173.819954 3.779720 -179.999991 0.000005 -1.121007 152.851096 -3.192669 -1.730933 0.000004 0.000004 0.413126 69.514407 6.903956 2.063901 30.062681 -7.237407 1.772977 -0.100138 -175.853015 4.631448 -0.000004 0.000011 -1.097980 -10.220601 3.815948 0.601814 -0.000007 0.000002 -0.146584 71.151815 -6.904545 -1.962075 25.456854 7.355622 0.000003 
58.457005 -6.631726 92.670494 -5.875391 -1.367740 0.374320 -0.745797 0.354139 0.009624 2.511192 0.707770 0.020372 4.156319 0.707950 0.011894 5.253293 1.134885 -2.924690 10.414641 -11.863151 -0.794757 -16.775764 -6.457796 -18.708679 -148.937001 -179.299132 -75.266847 0.000001 0.000001 -0.000008 51.061046 -0.889477 1.093068 0.000001 0.000004 -3.000089 -5.000210 -7.999603 0.000067 -2.358091 79.848880 4.876402 -74.760778 99.717579 55.557978 0.000002 0.000000 0.000004 0.063092 7.801236 0.752440 -0.000001 0.000002 3.015859 -5.000173 7.999860 -0.000027 -7.735112 -173.812359 3.779448 -179.999991 0.000006 -1.121006 152.849662 -3.193516 -1.732463 0.000002 0.000004 0.413051 69.515671 6.903937 2.063820 30.033199 -7.237852 1.774070 -0.115576 -175.848015 4.633961 -0.000005 0.000011 -1.097720 -10.217621 3.817972 0.601764 -0.000007 0.000003 -0.146662 71.150613 -6.904782 -1.959789 25.456860 7.355620 0.000002 
58.451603 -6.614717 92.669502 -5.859134 -1.367223 0.355814 -0.746992 0.355173 0.008831 2.508813 0.709716 0.018796 4.153929 0.709875 0.010296 5.224484 1.143860 -2.921435 10.423793 -11.877783 -0.788914 -16.765244 -6.462377 -18.690562 -148.891239 -179.155534 -75.264443 0.000001 0.000000 -0.000008 50.646638 -0.759175 1.005548 0.000003 0.000003 -3.000080 -5.000210 -7.999600 0.000066 -2.354448 79.863312 4.873872 -74.847412 99.723132 55.641661 0.000003 0.000000 0.000002 0.063117 7.799037 0.751353 -0.000002 0.000002 3.015857 -5.000173 7.999860 -0.000026 -7.760236 -173.803821 3.779362 -179.999991 0.000005 -1.121006 152.847913 -3.195242 -1.734467 0.000003 0.000004 0.412979 69.517030 6.903889 2.063827 30.004020 -7.238289 1.775161 -0.132457 -175.841007 4.636793 -0.000005 0.000011 -1.097470 -10.214836 3.819934 0.601744 -0.000007 0.000003 -0.146741 71.149445 -6.905084 -1.957210 25.456854 7.355620 0.000002 
58.460503 -6.613627 92.670593 -5.842046 -1.366867 0.338226 -0.748356 0.356306 0.007952 2.506083 0.711868 0.017049 4.151211 0.712001 0.008524 5.195722 1.151481 -2.918480 10.432931 -11.891822 -0.783326 -16.755127 -6.466879 -18.673068 -148.844111 -179.009231 -75.265071 0.000001 -0.000001 -0.000008 50.227722 -0.626931 0.918462 0.000003 0.000004 -3.000080 -5.000207 -7.999600 0.000067 -2.351328 79.877157 4.871831 -74.929484 99.728569 55.720420 0.000002 0.000001 0.000003 0.063141 7.796547 0.750233 -0.000001 0.000002 3.015858 -5.000173 7.999859 -0.000027 -7.786167 -173.795297 3.779474 -179.999991 0.000006 -1.121007 152.845960 -3.196974 -1.736488 0.000004 0.000003 0.412905 69.518499 6.903846 2.063828 29.975054 -7.238730 1.776262 -0.150399 -175.834013 4.639853 -0.000006 0.000011 -1.097240 -10.212455 3.821853 0.601765 -0.000007 0.000003 -0.146823 71.148489 -6.905416 -1.954325 25.456856 7.355621 0.000002 
58.489502 -6.607122 92.666389 -5.824463 -1.366561 0.321337 -0.749831 0.357514 0.007018 2.503135 0.714185 0.015195 4.148253 0.714294 0.006643 5.167218 1.157648 -2.915739 10.441846 -11.905382 -0.777919 -16.745310 -6.471341 -18.655996 -148.795234 -178.860443 -75.268821 -0.000000 -0.000000 -0.000008 49.805012 -0.493244 0.832089 0.000003 0.000005 -3.000080 -5.000212 -7.999600 0.000066 -2.348803 79.890182 4.870348 -75.007088 99.733903 55.794569 0.000002 0.000001 0.000002 0.063163 7.793806 0.749107 -0.000000 0.000002 3.015858 -5.000173 7.999859 -0.000026 -7.812483 -173.785762 3.779518 -179.999991 0.000005 -1.121007 152.844006 -3.198695 -1.738517 0.000002 0.000003 0.412832 69.520076 6.903805 2.063822 29.946476 -7.239154 1.777411 -0.169010 -175.827019 4.643040 -0.000005 0.000011 -1.097040 -10.210373 3.823718 0.601811 -0.000007 0.000003 -0.146907 71.147690 -6.905844 -1.951046 25.456858 7.355622 0.000003 
58.489906 -6.601677 92.663094 -5.806686 -1.366187 0.304932 -0.751364 0.358774 0.006063 2.500076 0.716628 0.013298 4.145195 0.716712 0.004717 5.139160 1.162261 -2.913163 10.450220 -11.918263 -0.772694 -16.735697 -6.475836 -18.639351 -148.743967 -178.709441 -75.275809 -0.000001 0.000000 -0.000009 49.379515 -0.358639 0.746707 0.000005 0.000003 -3.000079 -5.000208 -7.999600 0.000066 -2.347017 79.902408 4.869556 -75.079536 99.739156 55.863304 0.000002 0.000001 0.000001 0.063186 7.790836 0.748000 -0.000001 0.000001 3.015858 -5.000173 7.999859 -0.000025 -7.838727 -173.777238 3.779647 -179.999991 0.000005 -1.119996 152.842162 -3.200419 -1.739529 0.000004 0.000003 0.412759 69.521538 6.903762 2.063823 29.918411 -7.239569 1.778664 -0.187910 -175.820025 4.646272 -0.000005 0.000011 -1.096870 -10.208490 3.825542 0.601874 -0.000007 0.000003 -0.146994 71.147205 -6.906301 -1.947653 25.456858 7.355620 0.000002 
58.505405 -6.591908 92.662598 -5.789048 -1.365652 0.288788 -0.752897 0.360061 0.005118 2.497016 0.719156 0.011422 4.142137 0.719216 0.002811 5.111769 1.165219 -2.910697 10.457748 -11.930295 -0.767639 -16.726288 -6.480389 -18.623059 -148.690131 -178.556417 -75.287106 -0.000001 -0.000000 -0.000008 48.952007 -0.223647 0.662563 0.000004 0.000004 -3.000080 -5.000209 -7.999600 0.000066 -2.346103 79.913821 4.869620 -75.146991 99.744347 55.926993 0.000001 0.000001 0.000001 0.063207 7.787686 0.746931 0.000000 0.000001 3.015857 -5.000173 7.999860 -0.000026 -7.864502 -173.768687 3.779597 -179.999991 0.000006 -1.119996 152.840700 -3.202165 -1.741522 0.000004 0.000003 0.412686 69.522911 6.903747 2.063834 29.890650 -7.239999 1.780005 -0.206710 -175.814028 4.649440 -0.000004 0.000010 -1.096751 -10.206907 3.827323 0.601953 -0.000006 0.000003 -0.147082 71.147164 -6.906789 -1.944137 25.456853 7.355621 0.000002 
